<svg width="24" height="22" viewBox="0 0 24 22" fill="none" xmlns="http://www.w3.org/2000/svg">
<path d="M10.3506 10.9752C10.7425 11.3282 11.261 11.5252 11.8001 11.5259C12.3392 11.5267 12.8583 11.3311 13.2513 10.9793L20.3548 4.61744C20.1007 4.51684 19.8283 4.46498 19.5532 4.46484H4.04168C3.78092 4.46626 3.52271 4.5139 3.28021 4.60534L10.3506 10.9752Z" fill="#22272E"/>
<path d="M14.2165 11.9592C13.561 12.5447 12.696 12.87 11.7978 12.8687C10.8995 12.8675 10.0356 12.5398 9.38186 11.9525L2.20851 5.49121C2.02569 5.79223 1.92848 6.13354 1.92648 6.48138V15.8924C1.92648 16.4272 2.14933 16.9401 2.54601 17.3183C2.94269 17.6965 3.4807 17.909 4.04168 17.909H19.5532C20.1141 17.909 20.6522 17.6965 21.0488 17.3183C21.4455 16.9401 21.6684 16.4272 21.6684 15.8924V6.48138C21.666 6.14581 21.5745 5.81627 21.4025 5.52348L14.2165 11.9592Z" fill="#22272E"/>
</svg>
