<svg width="24" height="22" viewBox="0 0 24 22" fill="none" xmlns="http://www.w3.org/2000/svg">
<path fill-rule="evenodd" clip-rule="evenodd" d="M7.09697 7.53346V6.63718C7.09697 5.44863 7.59219 4.30877 8.4737 3.46834C9.3552 2.62791 10.5508 2.15576 11.7974 2.15576C13.0441 2.15576 14.2396 2.62791 15.1211 3.46834C16.0026 4.30877 16.4979 5.44863 16.4979 6.63718V7.53346C17.2458 7.53346 17.9632 7.81675 18.4921 8.321C19.021 8.82526 19.3181 9.50918 19.3181 10.2223V17.3926C19.3181 18.1057 19.021 18.7896 18.4921 19.2939C17.9632 19.7981 17.2458 20.0814 16.4979 20.0814H7.09697C6.34899 20.0814 5.63164 19.7981 5.10274 19.2939C4.57384 18.7896 4.2767 18.1057 4.2767 17.3926V10.2223C4.2767 9.50918 4.57384 8.82526 5.10274 8.321C5.63164 7.81675 6.34899 7.53346 7.09697 7.53346ZM14.6177 7.53346V6.63718C14.6177 5.92405 14.3205 5.24013 13.7916 4.73587C13.2627 4.23162 12.5454 3.94833 11.7974 3.94833C11.0494 3.94833 10.3321 4.23162 9.80319 4.73587C9.27428 5.24013 8.97715 5.92405 8.97715 6.63718V7.53346H14.6177ZM12.7375 14.4635C13.0959 14.2662 13.376 13.9617 13.5344 13.5971C13.6928 13.2325 13.7206 12.8283 13.6134 12.4472C13.5063 12.0661 13.2703 11.7293 12.9419 11.489C12.6136 11.2488 12.2113 11.1186 11.7974 11.1186C11.3835 11.1186 10.9812 11.2488 10.6529 11.489C10.3245 11.7293 10.0885 12.0661 9.98139 12.4472C9.87427 12.8283 9.90205 13.2325 10.0604 13.5971C10.2188 13.9617 10.4989 14.2662 10.8573 14.4635V15.6C10.8573 15.8377 10.9564 16.0657 11.1327 16.2338C11.309 16.4019 11.5481 16.4963 11.7974 16.4963C12.0467 16.4963 12.2859 16.4019 12.4622 16.2338C12.6385 16.0657 12.7375 15.8377 12.7375 15.6V14.4635Z" fill="#22272E"/>
</svg>
