<svg width="24" height="23" viewBox="0 0 24 23" fill="none" xmlns="http://www.w3.org/2000/svg">
<g clip-path="url(#clip0_55_613)">
<path d="M1.42049 21.4005H22.174C22.4512 21.4005 22.7097 21.2926 22.8831 21.1047C23.0338 20.9416 23.1005 20.7348 23.0719 20.5223C22.5852 16.9075 20.2538 13.8953 17.0622 12.2893C15.7132 13.5755 13.8509 14.3721 11.7973 14.3721C9.74367 14.3721 7.88127 13.5755 6.53235 12.2893C3.34066 13.8949 1.00885 16.9075 0.522632 20.5223C0.494014 20.7348 0.561151 20.9421 0.711415 21.1047C0.884845 21.2926 1.14331 21.4005 1.42049 21.4005Z" fill="#22272E"/>
<path d="M7.12097 11.5078C7.24224 11.6286 7.36849 11.7447 7.49944 11.8559C8.64286 12.8311 10.1465 13.4294 11.7974 13.4294C13.4483 13.4294 14.9519 12.8306 16.0953 11.8559C16.2263 11.7447 16.3526 11.6286 16.4738 11.5078C16.5944 11.3867 16.712 11.2629 16.8227 11.1329C17.7185 10.0752 18.2581 8.73216 18.2581 7.26983C18.2581 3.87313 15.3595 1.11011 11.7973 1.11011C8.23513 1.11011 5.3367 3.87357 5.3367 7.26975C5.3367 8.73207 5.87625 10.0752 6.77211 11.1328C6.88231 11.2629 6.99986 11.3863 7.12097 11.5078Z" fill="#22272E"/>
</g>
<defs>
<clipPath id="clip0_55_613">
<rect width="22.5621" height="21.5108" fill="white" transform="translate(0.516357 0.5)"/>
</clipPath>
</defs>
</svg>
