<svg width="52" height="56" viewBox="0 0 52 56" fill="none" xmlns="http://www.w3.org/2000/svg">
<path fill-rule="evenodd" clip-rule="evenodd" d="M12.9023 3.91522C10.3609 3.91522 7.92346 4.97631 6.12604 6.86518C4.32863 8.75405 3.31836 11.316 3.31738 13.9878V40.8584C3.31738 43.5308 4.32722 46.0938 6.12474 47.9835C7.92226 49.8732 10.3602 50.9348 12.9023 50.9348H38.4621C41.0035 50.9338 43.4406 49.8717 45.2373 47.9821C47.034 46.0925 48.0434 43.5301 48.0434 40.8584V13.9878C48.0424 11.3167 47.0326 8.7553 45.236 6.86655C43.4394 4.97779 41.0029 3.91625 38.4621 3.91522H12.9023ZM41.2191 14.0033C41.2191 14.773 40.9282 15.5112 40.4105 16.0555C39.8928 16.5997 39.1906 16.9055 38.4584 16.9055C37.7263 16.9055 37.0241 16.5997 36.5064 16.0555C35.9886 15.5112 35.6978 14.773 35.6978 14.0033C35.6978 13.2336 35.9886 12.4954 36.5064 11.9511C37.0241 11.4069 37.7263 11.1011 38.4584 11.1011C39.1906 11.1011 39.8928 11.4069 40.4105 11.9511C40.9282 12.4954 41.2191 13.2336 41.2191 14.0033ZM25.6859 19.3743C23.6553 19.3743 21.708 20.2223 20.2722 21.7317C18.8364 23.2412 18.0297 25.2884 18.0297 27.4231C18.0297 29.5578 18.8364 31.605 20.2722 33.1144C21.708 34.6239 23.6553 35.4719 25.6859 35.4719C27.7164 35.4719 29.6638 34.6239 31.0996 33.1144C32.5354 31.605 33.342 29.5578 33.342 27.4231C33.342 25.2884 32.5354 23.2412 31.0996 21.7317C29.6638 20.2223 27.7164 19.3743 25.6859 19.3743ZM14.3452 27.4231C14.3452 24.2621 15.5396 21.2306 17.6657 18.9955C19.7918 16.7604 22.6754 15.5047 25.6822 15.5047C28.689 15.5047 31.5726 16.7604 33.6987 18.9955C35.8248 21.2306 37.0192 24.2621 37.0192 27.4231C37.0192 30.584 35.8248 33.6155 33.6987 35.8507C31.5726 38.0858 28.689 39.3415 25.6822 39.3415C22.6754 39.3415 19.7918 38.0858 17.6657 35.8507C15.5396 33.6155 14.3452 30.584 14.3452 27.4231Z" fill="black"/>
</svg>
