<svg width="46" height="48" viewBox="0 0 46 48" fill="none" xmlns="http://www.w3.org/2000/svg">
<g clip-path="url(#clip0_114_331)">
<path d="M8.78218 0.833801C4.23803 0.833801 0.579102 4.60035 0.579102 9.27814V38.636C0.579102 43.3138 4.23803 47.0804 8.78218 47.0804H24.2393V29.0009H19.5951V22.4917H24.2393V16.9305C24.2393 12.5614 26.9833 8.54976 33.3043 8.54976C35.8636 8.54976 37.7561 8.80268 37.7561 8.80268L37.6073 14.8812C37.6073 14.8812 35.6772 14.8625 33.5711 14.8625C31.2916 14.8625 30.9261 15.9436 30.9261 17.7384V22.4917H37.7884L37.4894 29.0009H30.9261V47.0804H37.3012C41.8454 47.0804 45.5043 43.3139 45.5043 38.6361V9.27819C45.5043 4.6004 41.8454 0.833848 37.3012 0.833848H8.78213L8.78218 0.833801Z" fill="black"/>
</g>
<defs>
<clipPath id="clip0_114_331">
<rect width="44.9252" height="46.2465" fill="white" transform="translate(0.579102 0.833801)"/>
</clipPath>
</defs>
</svg>
