<svg width="48" height="49" viewBox="0 0 48 49" fill="none" xmlns="http://www.w3.org/2000/svg">
<path d="M42.4271 0.512451C43.8288 0.512451 45.1732 1.0693 46.1644 2.06048C47.1556 3.05167 47.7124 4.39602 47.7124 5.79777V42.795C47.7124 44.1968 47.1556 45.5411 46.1644 46.5323C45.1732 47.5235 43.8288 48.0803 42.4271 48.0803H5.42985C4.0281 48.0803 2.68375 47.5235 1.69256 46.5323C0.701375 45.5411 0.144531 44.1968 0.144531 42.795V5.79777C0.144531 4.39602 0.701375 3.05167 1.69256 2.06048C2.68375 1.0693 4.0281 0.512451 5.42985 0.512451H42.4271ZM41.1058 41.4737V27.4676C41.1058 25.1827 40.1981 22.9914 38.5825 21.3758C36.9668 19.7602 34.7755 18.8525 32.4907 18.8525C30.2444 18.8525 27.6282 20.2267 26.3597 22.288V19.3546H18.9867V41.4737H26.3597V28.4454C26.3597 26.4105 27.9982 24.7456 30.033 24.7456C31.0142 24.7456 31.9553 25.1354 32.6491 25.8293C33.3429 26.5231 33.7327 27.4641 33.7327 28.4454V41.4737H41.1058ZM10.3981 15.2056C11.5755 15.2056 12.7048 14.7379 13.5374 13.9053C14.37 13.0727 14.8377 11.9434 14.8377 10.766C14.8377 8.3083 12.8557 6.29988 10.3981 6.29988C9.21357 6.29988 8.0776 6.77041 7.24004 7.60796C6.40249 8.44552 5.93196 9.58149 5.93196 10.766C5.93196 13.2236 7.94038 15.2056 10.3981 15.2056ZM14.0713 41.4737V19.3546H6.75118V41.4737H14.0713Z" fill="black"/>
</svg>
